<mxfile host="app.diagrams.net" modified="2020-08-18T17:02:35.026Z" agent="5.0 (X11; Linux x86_64) AppleWebKit/537.36 (KHTML, like Gecko) Chrome/84.0.4147.125 Safari/537.36" etag="VaNWb3CSdg_x6kwSks0Y" version="13.6.3" type="github">
  <diagram id="R2lEEEUBdFMjLlhIrx00" name="Page-1">
    <mxGraphModel dx="2006" dy="1134" grid="0" gridSize="10" guides="1" tooltips="1" connect="1" arrows="1" fold="1" page="0" pageScale="1" pageWidth="850" pageHeight="1100" background="none" math="0" shadow="0" extFonts="Permanent Marker^https://fonts.googleapis.com/css?family=Permanent+Marker">
      <root>
        <mxCell id="0" />
        <mxCell id="1" parent="0" />
        <mxCell id="C-vyLk0tnHw3VtMMgP7b-2" value="student" style="shape=table;startSize=30;container=1;collapsible=1;childLayout=tableLayout;fixedRows=1;rowLines=1;fontStyle=1;align=center;resizeLast=1;fillColor=#bac8d3;strokeColor=#23445d;swimlaneFillColor=none;" parent="1" vertex="1">
          <mxGeometry x="453" y="87" width="250" height="290" as="geometry" />
        </mxCell>
        <mxCell id="C-vyLk0tnHw3VtMMgP7b-3" value="" style="shape=partialRectangle;collapsible=0;dropTarget=0;pointerEvents=0;fillColor=none;points=[[0,0.5],[1,0.5]];portConstraint=eastwest;top=0;left=0;right=0;bottom=1;" parent="C-vyLk0tnHw3VtMMgP7b-2" vertex="1">
          <mxGeometry y="30" width="250" height="30" as="geometry" />
        </mxCell>
        <mxCell id="C-vyLk0tnHw3VtMMgP7b-4" value="PK" style="shape=partialRectangle;overflow=hidden;connectable=0;fillColor=none;top=0;left=0;bottom=0;right=0;fontStyle=1;" parent="C-vyLk0tnHw3VtMMgP7b-3" vertex="1">
          <mxGeometry width="32.75" height="30" as="geometry" />
        </mxCell>
        <mxCell id="C-vyLk0tnHw3VtMMgP7b-5" value="id SERIAL INT NOT NULL" style="shape=partialRectangle;overflow=hidden;connectable=0;fillColor=none;top=0;left=0;bottom=0;right=0;align=left;spacingLeft=6;fontStyle=5;" parent="C-vyLk0tnHw3VtMMgP7b-3" vertex="1">
          <mxGeometry x="32.75" width="217.25" height="30" as="geometry" />
        </mxCell>
        <mxCell id="C-vyLk0tnHw3VtMMgP7b-6" value="" style="shape=partialRectangle;collapsible=0;dropTarget=0;pointerEvents=0;fillColor=none;points=[[0,0.5],[1,0.5]];portConstraint=eastwest;top=0;left=0;right=0;bottom=0;" parent="C-vyLk0tnHw3VtMMgP7b-2" vertex="1">
          <mxGeometry y="60" width="250" height="30" as="geometry" />
        </mxCell>
        <mxCell id="C-vyLk0tnHw3VtMMgP7b-7" value="" style="shape=partialRectangle;overflow=hidden;connectable=0;fillColor=none;top=0;left=0;bottom=0;right=0;" parent="C-vyLk0tnHw3VtMMgP7b-6" vertex="1">
          <mxGeometry width="32.75" height="30" as="geometry" />
        </mxCell>
        <mxCell id="C-vyLk0tnHw3VtMMgP7b-8" value="name VARCHAR(255) NOT NULL" style="shape=partialRectangle;overflow=hidden;connectable=0;fillColor=none;top=0;left=0;bottom=0;right=0;align=left;spacingLeft=6;" parent="C-vyLk0tnHw3VtMMgP7b-6" vertex="1">
          <mxGeometry x="32.75" width="217.25" height="30" as="geometry" />
        </mxCell>
        <mxCell id="TH_2x9Yu9lI-z_PSha7c-21" value="" style="shape=partialRectangle;collapsible=0;dropTarget=0;pointerEvents=0;fillColor=none;points=[[0,0.5],[1,0.5]];portConstraint=eastwest;top=0;left=0;right=0;bottom=0;" vertex="1" parent="C-vyLk0tnHw3VtMMgP7b-2">
          <mxGeometry y="90" width="250" height="30" as="geometry" />
        </mxCell>
        <mxCell id="TH_2x9Yu9lI-z_PSha7c-22" value="" style="shape=partialRectangle;overflow=hidden;connectable=0;fillColor=none;top=0;left=0;bottom=0;right=0;" vertex="1" parent="TH_2x9Yu9lI-z_PSha7c-21">
          <mxGeometry width="32.75" height="30" as="geometry" />
        </mxCell>
        <mxCell id="TH_2x9Yu9lI-z_PSha7c-23" value="email VARCHAR(255)" style="shape=partialRectangle;overflow=hidden;connectable=0;fillColor=none;top=0;left=0;bottom=0;right=0;align=left;spacingLeft=6;" vertex="1" parent="TH_2x9Yu9lI-z_PSha7c-21">
          <mxGeometry x="32.75" width="217.25" height="30" as="geometry" />
        </mxCell>
        <mxCell id="TH_2x9Yu9lI-z_PSha7c-24" value="" style="shape=partialRectangle;collapsible=0;dropTarget=0;pointerEvents=0;fillColor=none;points=[[0,0.5],[1,0.5]];portConstraint=eastwest;top=0;left=0;right=0;bottom=0;" vertex="1" parent="C-vyLk0tnHw3VtMMgP7b-2">
          <mxGeometry y="120" width="250" height="30" as="geometry" />
        </mxCell>
        <mxCell id="TH_2x9Yu9lI-z_PSha7c-25" value="" style="shape=partialRectangle;overflow=hidden;connectable=0;fillColor=none;top=0;left=0;bottom=0;right=0;" vertex="1" parent="TH_2x9Yu9lI-z_PSha7c-24">
          <mxGeometry width="32.75" height="30" as="geometry" />
        </mxCell>
        <mxCell id="TH_2x9Yu9lI-z_PSha7c-26" value="phone VARCHAR(32)" style="shape=partialRectangle;overflow=hidden;connectable=0;fillColor=none;top=0;left=0;bottom=0;right=0;align=left;spacingLeft=6;" vertex="1" parent="TH_2x9Yu9lI-z_PSha7c-24">
          <mxGeometry x="32.75" width="217.25" height="30" as="geometry" />
        </mxCell>
        <mxCell id="TH_2x9Yu9lI-z_PSha7c-27" value="" style="shape=partialRectangle;collapsible=0;dropTarget=0;pointerEvents=0;fillColor=none;points=[[0,0.5],[1,0.5]];portConstraint=eastwest;top=0;left=0;right=0;bottom=0;" vertex="1" parent="C-vyLk0tnHw3VtMMgP7b-2">
          <mxGeometry y="150" width="250" height="30" as="geometry" />
        </mxCell>
        <mxCell id="TH_2x9Yu9lI-z_PSha7c-28" value="" style="shape=partialRectangle;overflow=hidden;connectable=0;fillColor=none;top=0;left=0;bottom=0;right=0;" vertex="1" parent="TH_2x9Yu9lI-z_PSha7c-27">
          <mxGeometry width="32.75" height="30" as="geometry" />
        </mxCell>
        <mxCell id="TH_2x9Yu9lI-z_PSha7c-29" value="github VARCHAR(255)" style="shape=partialRectangle;overflow=hidden;connectable=0;fillColor=none;top=0;left=0;bottom=0;right=0;align=left;spacingLeft=6;" vertex="1" parent="TH_2x9Yu9lI-z_PSha7c-27">
          <mxGeometry x="32.75" width="217.25" height="30" as="geometry" />
        </mxCell>
        <mxCell id="TH_2x9Yu9lI-z_PSha7c-30" value="" style="shape=partialRectangle;collapsible=0;dropTarget=0;pointerEvents=0;fillColor=none;points=[[0,0.5],[1,0.5]];portConstraint=eastwest;top=0;left=0;right=0;bottom=0;" vertex="1" parent="C-vyLk0tnHw3VtMMgP7b-2">
          <mxGeometry y="180" width="250" height="30" as="geometry" />
        </mxCell>
        <mxCell id="TH_2x9Yu9lI-z_PSha7c-31" value="" style="shape=partialRectangle;overflow=hidden;connectable=0;fillColor=none;top=0;left=0;bottom=0;right=0;" vertex="1" parent="TH_2x9Yu9lI-z_PSha7c-30">
          <mxGeometry width="32.75" height="30" as="geometry" />
        </mxCell>
        <mxCell id="TH_2x9Yu9lI-z_PSha7c-32" value="start_date DATE" style="shape=partialRectangle;overflow=hidden;connectable=0;fillColor=none;top=0;left=0;bottom=0;right=0;align=left;spacingLeft=6;" vertex="1" parent="TH_2x9Yu9lI-z_PSha7c-30">
          <mxGeometry x="32.75" width="217.25" height="30" as="geometry" />
        </mxCell>
        <mxCell id="TH_2x9Yu9lI-z_PSha7c-33" value="" style="shape=partialRectangle;collapsible=0;dropTarget=0;pointerEvents=0;fillColor=none;points=[[0,0.5],[1,0.5]];portConstraint=eastwest;top=0;left=0;right=0;bottom=0;" vertex="1" parent="C-vyLk0tnHw3VtMMgP7b-2">
          <mxGeometry y="210" width="250" height="30" as="geometry" />
        </mxCell>
        <mxCell id="TH_2x9Yu9lI-z_PSha7c-34" value="" style="shape=partialRectangle;overflow=hidden;connectable=0;fillColor=none;top=0;left=0;bottom=0;right=0;" vertex="1" parent="TH_2x9Yu9lI-z_PSha7c-33">
          <mxGeometry width="32.75" height="30" as="geometry" />
        </mxCell>
        <mxCell id="TH_2x9Yu9lI-z_PSha7c-35" value="end_date DATE" style="shape=partialRectangle;overflow=hidden;connectable=0;fillColor=none;top=0;left=0;bottom=0;right=0;align=left;spacingLeft=6;" vertex="1" parent="TH_2x9Yu9lI-z_PSha7c-33">
          <mxGeometry x="32.75" width="217.25" height="30" as="geometry" />
        </mxCell>
        <mxCell id="TH_2x9Yu9lI-z_PSha7c-36" value="" style="shape=partialRectangle;collapsible=0;dropTarget=0;pointerEvents=0;fillColor=none;points=[[0,0.5],[1,0.5]];portConstraint=eastwest;top=0;left=0;right=0;bottom=0;" vertex="1" parent="C-vyLk0tnHw3VtMMgP7b-2">
          <mxGeometry y="240" width="250" height="30" as="geometry" />
        </mxCell>
        <mxCell id="TH_2x9Yu9lI-z_PSha7c-37" value="FK" style="shape=partialRectangle;overflow=hidden;connectable=0;fillColor=none;top=0;left=0;bottom=0;right=0;" vertex="1" parent="TH_2x9Yu9lI-z_PSha7c-36">
          <mxGeometry width="32.75" height="30" as="geometry" />
        </mxCell>
        <mxCell id="TH_2x9Yu9lI-z_PSha7c-38" value="cohort_id INT" style="shape=partialRectangle;overflow=hidden;connectable=0;fillColor=none;top=0;left=0;bottom=0;right=0;align=left;spacingLeft=6;" vertex="1" parent="TH_2x9Yu9lI-z_PSha7c-36">
          <mxGeometry x="32.75" width="217.25" height="30" as="geometry" />
        </mxCell>
        <mxCell id="C-vyLk0tnHw3VtMMgP7b-9" value="" style="shape=partialRectangle;collapsible=0;dropTarget=0;pointerEvents=0;fillColor=none;points=[[0,0.5],[1,0.5]];portConstraint=eastwest;top=0;left=0;right=0;bottom=0;" parent="C-vyLk0tnHw3VtMMgP7b-2" vertex="1">
          <mxGeometry y="270" width="250" height="20" as="geometry" />
        </mxCell>
        <mxCell id="C-vyLk0tnHw3VtMMgP7b-10" value="" style="shape=partialRectangle;overflow=hidden;connectable=0;fillColor=none;top=0;left=0;bottom=0;right=0;" parent="C-vyLk0tnHw3VtMMgP7b-9" vertex="1">
          <mxGeometry width="32.75" height="20" as="geometry" />
        </mxCell>
        <mxCell id="C-vyLk0tnHw3VtMMgP7b-11" value="" style="shape=partialRectangle;overflow=hidden;connectable=0;fillColor=none;top=0;left=0;bottom=0;right=0;align=left;spacingLeft=6;" parent="C-vyLk0tnHw3VtMMgP7b-9" vertex="1">
          <mxGeometry x="32.75" width="217.25" height="20" as="geometry" />
        </mxCell>
        <mxCell id="TH_2x9Yu9lI-z_PSha7c-74" style="edgeStyle=orthogonalEdgeStyle;jumpStyle=arc;orthogonalLoop=1;jettySize=auto;html=1;endArrow=ERmany;fontSize=12;entryX=0;entryY=0.5;entryDx=0;entryDy=0;" edge="1" parent="1" source="C-vyLk0tnHw3VtMMgP7b-24" target="TH_2x9Yu9lI-z_PSha7c-36">
          <mxGeometry relative="1" as="geometry" />
        </mxCell>
        <mxCell id="TH_2x9Yu9lI-z_PSha7c-79" value="" style="edgeStyle=entityRelationEdgeStyle;fontSize=12;html=1;endArrow=ERmany;exitX=1;exitY=0.5;exitDx=0;exitDy=0;" edge="1" parent="1" source="TH_2x9Yu9lI-z_PSha7c-49" target="C-vyLk0tnHw3VtMMgP7b-17">
          <mxGeometry width="100" height="100" relative="1" as="geometry">
            <mxPoint x="809" y="807" as="sourcePoint" />
            <mxPoint x="909" y="707" as="targetPoint" />
          </mxGeometry>
        </mxCell>
        <mxCell id="TH_2x9Yu9lI-z_PSha7c-83" value="teacher" style="shape=table;startSize=30;container=1;collapsible=1;childLayout=tableLayout;fixedRows=1;rowLines=0;fontStyle=1;align=center;resizeLast=1;rounded=0;sketch=0;fillColor=#bac8d3;fontSize=12;strokeColor=#23445d;" vertex="1" parent="1">
          <mxGeometry x="20" y="377" width="237.75" height="195.25" as="geometry" />
        </mxCell>
        <mxCell id="TH_2x9Yu9lI-z_PSha7c-84" value="" style="shape=partialRectangle;collapsible=0;dropTarget=0;pointerEvents=0;fillColor=none;top=0;left=0;bottom=1;right=0;points=[[0,0.5],[1,0.5]];portConstraint=eastwest;" vertex="1" parent="TH_2x9Yu9lI-z_PSha7c-83">
          <mxGeometry y="30" width="237.75" height="30" as="geometry" />
        </mxCell>
        <mxCell id="TH_2x9Yu9lI-z_PSha7c-85" value="PK" style="shape=partialRectangle;connectable=0;fillColor=none;top=0;left=0;bottom=0;right=0;fontStyle=1;overflow=hidden;" vertex="1" parent="TH_2x9Yu9lI-z_PSha7c-84">
          <mxGeometry width="30" height="30" as="geometry" />
        </mxCell>
        <mxCell id="TH_2x9Yu9lI-z_PSha7c-86" value="id SERIAL INT NOT NULL" style="shape=partialRectangle;connectable=0;fillColor=none;top=0;left=0;bottom=0;right=0;align=left;spacingLeft=6;fontStyle=5;overflow=hidden;" vertex="1" parent="TH_2x9Yu9lI-z_PSha7c-84">
          <mxGeometry x="30" width="207.75" height="30" as="geometry" />
        </mxCell>
        <mxCell id="TH_2x9Yu9lI-z_PSha7c-87" value="" style="shape=partialRectangle;collapsible=0;dropTarget=0;pointerEvents=0;fillColor=none;top=0;left=0;bottom=0;right=0;points=[[0,0.5],[1,0.5]];portConstraint=eastwest;" vertex="1" parent="TH_2x9Yu9lI-z_PSha7c-83">
          <mxGeometry y="60" width="237.75" height="30" as="geometry" />
        </mxCell>
        <mxCell id="TH_2x9Yu9lI-z_PSha7c-88" value="" style="shape=partialRectangle;connectable=0;fillColor=none;top=0;left=0;bottom=0;right=0;editable=1;overflow=hidden;" vertex="1" parent="TH_2x9Yu9lI-z_PSha7c-87">
          <mxGeometry width="30" height="30" as="geometry" />
        </mxCell>
        <mxCell id="TH_2x9Yu9lI-z_PSha7c-89" value="name VARCHAR(255) NOT NULL" style="shape=partialRectangle;connectable=0;fillColor=none;top=0;left=0;bottom=0;right=0;align=left;spacingLeft=6;overflow=hidden;" vertex="1" parent="TH_2x9Yu9lI-z_PSha7c-87">
          <mxGeometry x="30" width="207.75" height="30" as="geometry" />
        </mxCell>
        <mxCell id="TH_2x9Yu9lI-z_PSha7c-90" value="" style="shape=partialRectangle;collapsible=0;dropTarget=0;pointerEvents=0;fillColor=none;top=0;left=0;bottom=0;right=0;points=[[0,0.5],[1,0.5]];portConstraint=eastwest;" vertex="1" parent="TH_2x9Yu9lI-z_PSha7c-83">
          <mxGeometry y="90" width="237.75" height="30" as="geometry" />
        </mxCell>
        <mxCell id="TH_2x9Yu9lI-z_PSha7c-91" value="" style="shape=partialRectangle;connectable=0;fillColor=none;top=0;left=0;bottom=0;right=0;editable=1;overflow=hidden;" vertex="1" parent="TH_2x9Yu9lI-z_PSha7c-90">
          <mxGeometry width="30" height="30" as="geometry" />
        </mxCell>
        <mxCell id="TH_2x9Yu9lI-z_PSha7c-92" value="start_date DATE" style="shape=partialRectangle;connectable=0;fillColor=none;top=0;left=0;bottom=0;right=0;align=left;spacingLeft=6;overflow=hidden;" vertex="1" parent="TH_2x9Yu9lI-z_PSha7c-90">
          <mxGeometry x="30" width="207.75" height="30" as="geometry" />
        </mxCell>
        <mxCell id="TH_2x9Yu9lI-z_PSha7c-93" value="" style="shape=partialRectangle;collapsible=0;dropTarget=0;pointerEvents=0;fillColor=none;top=0;left=0;bottom=0;right=0;points=[[0,0.5],[1,0.5]];portConstraint=eastwest;" vertex="1" parent="TH_2x9Yu9lI-z_PSha7c-83">
          <mxGeometry y="120" width="237.75" height="33" as="geometry" />
        </mxCell>
        <mxCell id="TH_2x9Yu9lI-z_PSha7c-94" value="" style="shape=partialRectangle;connectable=0;fillColor=none;top=0;left=0;bottom=0;right=0;editable=1;overflow=hidden;" vertex="1" parent="TH_2x9Yu9lI-z_PSha7c-93">
          <mxGeometry width="30" height="33" as="geometry" />
        </mxCell>
        <mxCell id="TH_2x9Yu9lI-z_PSha7c-95" value="end_date DATE" style="shape=partialRectangle;connectable=0;fillColor=none;top=0;left=0;bottom=0;right=0;align=left;spacingLeft=6;overflow=hidden;" vertex="1" parent="TH_2x9Yu9lI-z_PSha7c-93">
          <mxGeometry x="30" width="207.75" height="33" as="geometry" />
        </mxCell>
        <mxCell id="TH_2x9Yu9lI-z_PSha7c-96" value="" style="shape=partialRectangle;collapsible=0;dropTarget=0;pointerEvents=0;fillColor=none;top=0;left=0;bottom=0;right=0;points=[[0,0.5],[1,0.5]];portConstraint=eastwest;" vertex="1" parent="TH_2x9Yu9lI-z_PSha7c-83">
          <mxGeometry y="153" width="237.75" height="33" as="geometry" />
        </mxCell>
        <mxCell id="TH_2x9Yu9lI-z_PSha7c-97" value="" style="shape=partialRectangle;connectable=0;fillColor=none;top=0;left=0;bottom=0;right=0;editable=1;overflow=hidden;" vertex="1" parent="TH_2x9Yu9lI-z_PSha7c-96">
          <mxGeometry width="30" height="33" as="geometry" />
        </mxCell>
        <mxCell id="TH_2x9Yu9lI-z_PSha7c-98" value="is_active BOOLEAN" style="shape=partialRectangle;connectable=0;fillColor=none;top=0;left=0;bottom=0;right=0;align=left;spacingLeft=6;overflow=hidden;" vertex="1" parent="TH_2x9Yu9lI-z_PSha7c-96">
          <mxGeometry x="30" width="207.75" height="33" as="geometry" />
        </mxCell>
        <mxCell id="TH_2x9Yu9lI-z_PSha7c-99" value="assistance_request" style="shape=table;startSize=30;container=1;collapsible=1;childLayout=tableLayout;fixedRows=1;rowLines=0;fontStyle=1;align=center;resizeLast=1;rounded=0;sketch=0;fillColor=#bac8d3;fontSize=12;strokeColor=#23445d;" vertex="1" parent="1">
          <mxGeometry x="492" y="626" width="227.75" height="310" as="geometry" />
        </mxCell>
        <mxCell id="TH_2x9Yu9lI-z_PSha7c-100" value="" style="shape=partialRectangle;collapsible=0;dropTarget=0;pointerEvents=0;fillColor=none;top=0;left=0;bottom=1;right=0;points=[[0,0.5],[1,0.5]];portConstraint=eastwest;" vertex="1" parent="TH_2x9Yu9lI-z_PSha7c-99">
          <mxGeometry y="30" width="227.75" height="30" as="geometry" />
        </mxCell>
        <mxCell id="TH_2x9Yu9lI-z_PSha7c-101" value="PK" style="shape=partialRectangle;connectable=0;fillColor=none;top=0;left=0;bottom=0;right=0;fontStyle=1;overflow=hidden;" vertex="1" parent="TH_2x9Yu9lI-z_PSha7c-100">
          <mxGeometry width="30" height="30" as="geometry" />
        </mxCell>
        <mxCell id="TH_2x9Yu9lI-z_PSha7c-102" value="if SERIAL INT NOT NULL" style="shape=partialRectangle;connectable=0;fillColor=none;top=0;left=0;bottom=0;right=0;align=left;spacingLeft=6;fontStyle=5;overflow=hidden;" vertex="1" parent="TH_2x9Yu9lI-z_PSha7c-100">
          <mxGeometry x="30" width="197.75" height="30" as="geometry" />
        </mxCell>
        <mxCell id="TH_2x9Yu9lI-z_PSha7c-103" value="" style="shape=partialRectangle;collapsible=0;dropTarget=0;pointerEvents=0;fillColor=none;top=0;left=0;bottom=0;right=0;points=[[0,0.5],[1,0.5]];portConstraint=eastwest;" vertex="1" parent="TH_2x9Yu9lI-z_PSha7c-99">
          <mxGeometry y="60" width="227.75" height="30" as="geometry" />
        </mxCell>
        <mxCell id="TH_2x9Yu9lI-z_PSha7c-104" value="FK" style="shape=partialRectangle;connectable=0;fillColor=none;top=0;left=0;bottom=0;right=0;editable=1;overflow=hidden;" vertex="1" parent="TH_2x9Yu9lI-z_PSha7c-103">
          <mxGeometry width="30" height="30" as="geometry" />
        </mxCell>
        <mxCell id="TH_2x9Yu9lI-z_PSha7c-105" value="assignment_id INT NOT NULL" style="shape=partialRectangle;connectable=0;fillColor=none;top=0;left=0;bottom=0;right=0;align=left;spacingLeft=6;overflow=hidden;" vertex="1" parent="TH_2x9Yu9lI-z_PSha7c-103">
          <mxGeometry x="30" width="197.75" height="30" as="geometry" />
        </mxCell>
        <mxCell id="TH_2x9Yu9lI-z_PSha7c-106" value="" style="shape=partialRectangle;collapsible=0;dropTarget=0;pointerEvents=0;fillColor=none;top=0;left=0;bottom=0;right=0;points=[[0,0.5],[1,0.5]];portConstraint=eastwest;" vertex="1" parent="TH_2x9Yu9lI-z_PSha7c-99">
          <mxGeometry y="90" width="227.75" height="30" as="geometry" />
        </mxCell>
        <mxCell id="TH_2x9Yu9lI-z_PSha7c-107" value="FK" style="shape=partialRectangle;connectable=0;fillColor=none;top=0;left=0;bottom=0;right=0;editable=1;overflow=hidden;" vertex="1" parent="TH_2x9Yu9lI-z_PSha7c-106">
          <mxGeometry width="30" height="30" as="geometry" />
        </mxCell>
        <mxCell id="TH_2x9Yu9lI-z_PSha7c-108" value="student_id INT NOT NULL" style="shape=partialRectangle;connectable=0;fillColor=none;top=0;left=0;bottom=0;right=0;align=left;spacingLeft=6;overflow=hidden;" vertex="1" parent="TH_2x9Yu9lI-z_PSha7c-106">
          <mxGeometry x="30" width="197.75" height="30" as="geometry" />
        </mxCell>
        <mxCell id="TH_2x9Yu9lI-z_PSha7c-109" value="" style="shape=partialRectangle;collapsible=0;dropTarget=0;pointerEvents=0;fillColor=none;top=0;left=0;bottom=0;right=0;points=[[0,0.5],[1,0.5]];portConstraint=eastwest;" vertex="1" parent="TH_2x9Yu9lI-z_PSha7c-99">
          <mxGeometry y="120" width="227.75" height="30" as="geometry" />
        </mxCell>
        <mxCell id="TH_2x9Yu9lI-z_PSha7c-110" value="FK" style="shape=partialRectangle;connectable=0;fillColor=none;top=0;left=0;bottom=0;right=0;editable=1;overflow=hidden;" vertex="1" parent="TH_2x9Yu9lI-z_PSha7c-109">
          <mxGeometry width="30" height="30" as="geometry" />
        </mxCell>
        <mxCell id="TH_2x9Yu9lI-z_PSha7c-111" value="teacher_id INT NOT NULL" style="shape=partialRectangle;connectable=0;fillColor=none;top=0;left=0;bottom=0;right=0;align=left;spacingLeft=6;overflow=hidden;" vertex="1" parent="TH_2x9Yu9lI-z_PSha7c-109">
          <mxGeometry x="30" width="197.75" height="30" as="geometry" />
        </mxCell>
        <mxCell id="TH_2x9Yu9lI-z_PSha7c-112" value="" style="shape=partialRectangle;collapsible=0;dropTarget=0;pointerEvents=0;fillColor=none;top=0;left=0;bottom=0;right=0;points=[[0,0.5],[1,0.5]];portConstraint=eastwest;" vertex="1" parent="TH_2x9Yu9lI-z_PSha7c-99">
          <mxGeometry y="150" width="227.75" height="30" as="geometry" />
        </mxCell>
        <mxCell id="TH_2x9Yu9lI-z_PSha7c-113" value="" style="shape=partialRectangle;connectable=0;fillColor=none;top=0;left=0;bottom=0;right=0;editable=1;overflow=hidden;" vertex="1" parent="TH_2x9Yu9lI-z_PSha7c-112">
          <mxGeometry width="30" height="30" as="geometry" />
        </mxCell>
        <mxCell id="TH_2x9Yu9lI-z_PSha7c-114" value="created_at DATE" style="shape=partialRectangle;connectable=0;fillColor=none;top=0;left=0;bottom=0;right=0;align=left;spacingLeft=6;overflow=hidden;" vertex="1" parent="TH_2x9Yu9lI-z_PSha7c-112">
          <mxGeometry x="30" width="197.75" height="30" as="geometry" />
        </mxCell>
        <mxCell id="TH_2x9Yu9lI-z_PSha7c-115" value="" style="shape=partialRectangle;collapsible=0;dropTarget=0;pointerEvents=0;fillColor=none;top=0;left=0;bottom=0;right=0;points=[[0,0.5],[1,0.5]];portConstraint=eastwest;" vertex="1" parent="TH_2x9Yu9lI-z_PSha7c-99">
          <mxGeometry y="180" width="227.75" height="30" as="geometry" />
        </mxCell>
        <mxCell id="TH_2x9Yu9lI-z_PSha7c-116" value="" style="shape=partialRectangle;connectable=0;fillColor=none;top=0;left=0;bottom=0;right=0;editable=1;overflow=hidden;" vertex="1" parent="TH_2x9Yu9lI-z_PSha7c-115">
          <mxGeometry width="30" height="30" as="geometry" />
        </mxCell>
        <mxCell id="TH_2x9Yu9lI-z_PSha7c-117" value="started_at DATE" style="shape=partialRectangle;connectable=0;fillColor=none;top=0;left=0;bottom=0;right=0;align=left;spacingLeft=6;overflow=hidden;" vertex="1" parent="TH_2x9Yu9lI-z_PSha7c-115">
          <mxGeometry x="30" width="197.75" height="30" as="geometry" />
        </mxCell>
        <mxCell id="TH_2x9Yu9lI-z_PSha7c-118" value="" style="shape=partialRectangle;collapsible=0;dropTarget=0;pointerEvents=0;fillColor=none;top=0;left=0;bottom=0;right=0;points=[[0,0.5],[1,0.5]];portConstraint=eastwest;" vertex="1" parent="TH_2x9Yu9lI-z_PSha7c-99">
          <mxGeometry y="210" width="227.75" height="30" as="geometry" />
        </mxCell>
        <mxCell id="TH_2x9Yu9lI-z_PSha7c-119" value="" style="shape=partialRectangle;connectable=0;fillColor=none;top=0;left=0;bottom=0;right=0;editable=1;overflow=hidden;" vertex="1" parent="TH_2x9Yu9lI-z_PSha7c-118">
          <mxGeometry width="30" height="30" as="geometry" />
        </mxCell>
        <mxCell id="TH_2x9Yu9lI-z_PSha7c-120" value="completed_at DATE" style="shape=partialRectangle;connectable=0;fillColor=none;top=0;left=0;bottom=0;right=0;align=left;spacingLeft=6;overflow=hidden;" vertex="1" parent="TH_2x9Yu9lI-z_PSha7c-118">
          <mxGeometry x="30" width="197.75" height="30" as="geometry" />
        </mxCell>
        <mxCell id="TH_2x9Yu9lI-z_PSha7c-121" value="" style="shape=partialRectangle;collapsible=0;dropTarget=0;pointerEvents=0;fillColor=none;top=0;left=0;bottom=0;right=0;points=[[0,0.5],[1,0.5]];portConstraint=eastwest;" vertex="1" parent="TH_2x9Yu9lI-z_PSha7c-99">
          <mxGeometry y="240" width="227.75" height="30" as="geometry" />
        </mxCell>
        <mxCell id="TH_2x9Yu9lI-z_PSha7c-122" value="" style="shape=partialRectangle;connectable=0;fillColor=none;top=0;left=0;bottom=0;right=0;editable=1;overflow=hidden;" vertex="1" parent="TH_2x9Yu9lI-z_PSha7c-121">
          <mxGeometry width="30" height="30" as="geometry" />
        </mxCell>
        <mxCell id="TH_2x9Yu9lI-z_PSha7c-123" value="student_feedback TEXT" style="shape=partialRectangle;connectable=0;fillColor=none;top=0;left=0;bottom=0;right=0;align=left;spacingLeft=6;overflow=hidden;" vertex="1" parent="TH_2x9Yu9lI-z_PSha7c-121">
          <mxGeometry x="30" width="197.75" height="30" as="geometry" />
        </mxCell>
        <mxCell id="TH_2x9Yu9lI-z_PSha7c-124" value="" style="shape=partialRectangle;collapsible=0;dropTarget=0;pointerEvents=0;fillColor=none;top=0;left=0;bottom=0;right=0;points=[[0,0.5],[1,0.5]];portConstraint=eastwest;" vertex="1" parent="TH_2x9Yu9lI-z_PSha7c-99">
          <mxGeometry y="270" width="227.75" height="30" as="geometry" />
        </mxCell>
        <mxCell id="TH_2x9Yu9lI-z_PSha7c-125" value="" style="shape=partialRectangle;connectable=0;fillColor=none;top=0;left=0;bottom=0;right=0;editable=1;overflow=hidden;" vertex="1" parent="TH_2x9Yu9lI-z_PSha7c-124">
          <mxGeometry width="30" height="30" as="geometry" />
        </mxCell>
        <mxCell id="TH_2x9Yu9lI-z_PSha7c-126" value="teacher_feedback TEXT" style="shape=partialRectangle;connectable=0;fillColor=none;top=0;left=0;bottom=0;right=0;align=left;spacingLeft=6;overflow=hidden;" vertex="1" parent="TH_2x9Yu9lI-z_PSha7c-124">
          <mxGeometry x="30" width="197.75" height="30" as="geometry" />
        </mxCell>
        <mxCell id="TH_2x9Yu9lI-z_PSha7c-127" value="" style="edgeStyle=orthogonalEdgeStyle;fontSize=12;html=1;endArrow=ERmany;" edge="1" parent="1" source="TH_2x9Yu9lI-z_PSha7c-84" target="TH_2x9Yu9lI-z_PSha7c-109">
          <mxGeometry width="100" height="100" relative="1" as="geometry">
            <mxPoint x="305" y="470" as="sourcePoint" />
            <mxPoint x="405" y="370" as="targetPoint" />
          </mxGeometry>
        </mxCell>
        <mxCell id="TH_2x9Yu9lI-z_PSha7c-128" value="" style="edgeStyle=entityRelationEdgeStyle;fontSize=12;html=1;endArrow=ERmany;entryX=0;entryY=0.5;entryDx=0;entryDy=0;" edge="1" parent="1" source="C-vyLk0tnHw3VtMMgP7b-3" target="TH_2x9Yu9lI-z_PSha7c-106">
          <mxGeometry width="100" height="100" relative="1" as="geometry">
            <mxPoint x="524" y="595" as="sourcePoint" />
            <mxPoint x="624" y="495" as="targetPoint" />
          </mxGeometry>
        </mxCell>
        <mxCell id="TH_2x9Yu9lI-z_PSha7c-129" value="" style="edgeStyle=orthogonalEdgeStyle;fontSize=12;html=1;endArrow=ERmany;" edge="1" parent="1" source="C-vyLk0tnHw3VtMMgP7b-17" target="TH_2x9Yu9lI-z_PSha7c-103">
          <mxGeometry width="100" height="100" relative="1" as="geometry">
            <mxPoint x="524" y="595" as="sourcePoint" />
            <mxPoint x="624" y="495" as="targetPoint" />
          </mxGeometry>
        </mxCell>
        <mxCell id="C-vyLk0tnHw3VtMMgP7b-13" value="assignment_submission" style="shape=table;startSize=30;container=1;collapsible=1;childLayout=tableLayout;fixedRows=1;rowLines=0;fontStyle=1;align=center;resizeLast=1;fillColor=#bac8d3;strokeColor=#23445d;" parent="1" vertex="1">
          <mxGeometry x="965" y="4" width="250" height="183" as="geometry" />
        </mxCell>
        <mxCell id="C-vyLk0tnHw3VtMMgP7b-14" value="" style="shape=partialRectangle;collapsible=0;dropTarget=0;pointerEvents=0;fillColor=none;points=[[0,0.5],[1,0.5]];portConstraint=eastwest;top=0;left=0;right=0;bottom=1;" parent="C-vyLk0tnHw3VtMMgP7b-13" vertex="1">
          <mxGeometry y="30" width="250" height="30" as="geometry" />
        </mxCell>
        <mxCell id="C-vyLk0tnHw3VtMMgP7b-15" value="PK" style="shape=partialRectangle;overflow=hidden;connectable=0;fillColor=none;top=0;left=0;bottom=0;right=0;fontStyle=1;" parent="C-vyLk0tnHw3VtMMgP7b-14" vertex="1">
          <mxGeometry width="30" height="30" as="geometry" />
        </mxCell>
        <mxCell id="C-vyLk0tnHw3VtMMgP7b-16" value="id SERIAL INT NOT NULL" style="shape=partialRectangle;overflow=hidden;connectable=0;fillColor=none;top=0;left=0;bottom=0;right=0;align=left;spacingLeft=6;fontStyle=5;" parent="C-vyLk0tnHw3VtMMgP7b-14" vertex="1">
          <mxGeometry x="30" width="220" height="30" as="geometry" />
        </mxCell>
        <mxCell id="C-vyLk0tnHw3VtMMgP7b-17" value="" style="shape=partialRectangle;collapsible=0;dropTarget=0;pointerEvents=0;fillColor=none;points=[[0,0.5],[1,0.5]];portConstraint=eastwest;top=0;left=0;right=0;bottom=0;" parent="C-vyLk0tnHw3VtMMgP7b-13" vertex="1">
          <mxGeometry y="60" width="250" height="30" as="geometry" />
        </mxCell>
        <mxCell id="C-vyLk0tnHw3VtMMgP7b-18" value="FK" style="shape=partialRectangle;overflow=hidden;connectable=0;fillColor=none;top=0;left=0;bottom=0;right=0;" parent="C-vyLk0tnHw3VtMMgP7b-17" vertex="1">
          <mxGeometry width="30" height="30" as="geometry" />
        </mxCell>
        <mxCell id="C-vyLk0tnHw3VtMMgP7b-19" value="assignment_id INT" style="shape=partialRectangle;overflow=hidden;connectable=0;fillColor=none;top=0;left=0;bottom=0;right=0;align=left;spacingLeft=6;" parent="C-vyLk0tnHw3VtMMgP7b-17" vertex="1">
          <mxGeometry x="30" width="220" height="30" as="geometry" />
        </mxCell>
        <mxCell id="C-vyLk0tnHw3VtMMgP7b-20" value="" style="shape=partialRectangle;collapsible=0;dropTarget=0;pointerEvents=0;fillColor=none;points=[[0,0.5],[1,0.5]];portConstraint=eastwest;top=0;left=0;right=0;bottom=0;" parent="C-vyLk0tnHw3VtMMgP7b-13" vertex="1">
          <mxGeometry y="90" width="250" height="30" as="geometry" />
        </mxCell>
        <mxCell id="C-vyLk0tnHw3VtMMgP7b-21" value="FK" style="shape=partialRectangle;overflow=hidden;connectable=0;fillColor=none;top=0;left=0;bottom=0;right=0;" parent="C-vyLk0tnHw3VtMMgP7b-20" vertex="1">
          <mxGeometry width="30" height="30" as="geometry" />
        </mxCell>
        <mxCell id="C-vyLk0tnHw3VtMMgP7b-22" value="student_id INT" style="shape=partialRectangle;overflow=hidden;connectable=0;fillColor=none;top=0;left=0;bottom=0;right=0;align=left;spacingLeft=6;" parent="C-vyLk0tnHw3VtMMgP7b-20" vertex="1">
          <mxGeometry x="30" width="220" height="30" as="geometry" />
        </mxCell>
        <mxCell id="TH_2x9Yu9lI-z_PSha7c-41" value="" style="shape=partialRectangle;collapsible=0;dropTarget=0;pointerEvents=0;fillColor=none;points=[[0,0.5],[1,0.5]];portConstraint=eastwest;top=0;left=0;right=0;bottom=0;" vertex="1" parent="C-vyLk0tnHw3VtMMgP7b-13">
          <mxGeometry y="120" width="250" height="30" as="geometry" />
        </mxCell>
        <mxCell id="TH_2x9Yu9lI-z_PSha7c-42" value="" style="shape=partialRectangle;overflow=hidden;connectable=0;fillColor=none;top=0;left=0;bottom=0;right=0;" vertex="1" parent="TH_2x9Yu9lI-z_PSha7c-41">
          <mxGeometry width="30" height="30" as="geometry" />
        </mxCell>
        <mxCell id="TH_2x9Yu9lI-z_PSha7c-43" value="duration INT" style="shape=partialRectangle;overflow=hidden;connectable=0;fillColor=none;top=0;left=0;bottom=0;right=0;align=left;spacingLeft=6;" vertex="1" parent="TH_2x9Yu9lI-z_PSha7c-41">
          <mxGeometry x="30" width="220" height="30" as="geometry" />
        </mxCell>
        <mxCell id="TH_2x9Yu9lI-z_PSha7c-44" value="" style="shape=partialRectangle;collapsible=0;dropTarget=0;pointerEvents=0;fillColor=none;points=[[0,0.5],[1,0.5]];portConstraint=eastwest;top=0;left=0;right=0;bottom=0;" vertex="1" parent="C-vyLk0tnHw3VtMMgP7b-13">
          <mxGeometry y="150" width="250" height="30" as="geometry" />
        </mxCell>
        <mxCell id="TH_2x9Yu9lI-z_PSha7c-45" value="" style="shape=partialRectangle;overflow=hidden;connectable=0;fillColor=none;top=0;left=0;bottom=0;right=0;" vertex="1" parent="TH_2x9Yu9lI-z_PSha7c-44">
          <mxGeometry width="30" height="30" as="geometry" />
        </mxCell>
        <mxCell id="TH_2x9Yu9lI-z_PSha7c-46" value="submission_date DATE" style="shape=partialRectangle;overflow=hidden;connectable=0;fillColor=none;top=0;left=0;bottom=0;right=0;align=left;spacingLeft=6;" vertex="1" parent="TH_2x9Yu9lI-z_PSha7c-44">
          <mxGeometry x="30" width="220" height="30" as="geometry" />
        </mxCell>
        <mxCell id="TH_2x9Yu9lI-z_PSha7c-130" value="" style="edgeStyle=orthogonalEdgeStyle;fontSize=12;html=1;endArrow=ERmany;" edge="1" parent="1" source="C-vyLk0tnHw3VtMMgP7b-3" target="C-vyLk0tnHw3VtMMgP7b-20">
          <mxGeometry width="100" height="100" relative="1" as="geometry">
            <mxPoint x="524" y="595" as="sourcePoint" />
            <mxPoint x="624" y="495" as="targetPoint" />
          </mxGeometry>
        </mxCell>
        <mxCell id="TH_2x9Yu9lI-z_PSha7c-48" value="assignment" style="shape=table;startSize=30;container=1;collapsible=1;childLayout=tableLayout;fixedRows=1;rowLines=0;fontStyle=1;align=center;resizeLast=1;fillColor=#bac8d3;strokeColor=#23445d;" vertex="1" parent="1">
          <mxGeometry x="1193" y="384" width="250" height="213.5" as="geometry" />
        </mxCell>
        <mxCell id="TH_2x9Yu9lI-z_PSha7c-49" value="" style="shape=partialRectangle;collapsible=0;dropTarget=0;pointerEvents=0;fillColor=none;points=[[0,0.5],[1,0.5]];portConstraint=eastwest;top=0;left=0;right=0;bottom=1;" vertex="1" parent="TH_2x9Yu9lI-z_PSha7c-48">
          <mxGeometry y="30" width="250" height="30" as="geometry" />
        </mxCell>
        <mxCell id="TH_2x9Yu9lI-z_PSha7c-50" value="PK" style="shape=partialRectangle;overflow=hidden;connectable=0;fillColor=none;top=0;left=0;bottom=0;right=0;fontStyle=1;" vertex="1" parent="TH_2x9Yu9lI-z_PSha7c-49">
          <mxGeometry width="30" height="30" as="geometry" />
        </mxCell>
        <mxCell id="TH_2x9Yu9lI-z_PSha7c-51" value="id SERIAL INT NOT NULL" style="shape=partialRectangle;overflow=hidden;connectable=0;fillColor=none;top=0;left=0;bottom=0;right=0;align=left;spacingLeft=6;fontStyle=5;" vertex="1" parent="TH_2x9Yu9lI-z_PSha7c-49">
          <mxGeometry x="30" width="220" height="30" as="geometry" />
        </mxCell>
        <mxCell id="TH_2x9Yu9lI-z_PSha7c-52" value="" style="shape=partialRectangle;collapsible=0;dropTarget=0;pointerEvents=0;fillColor=none;points=[[0,0.5],[1,0.5]];portConstraint=eastwest;top=0;left=0;right=0;bottom=0;" vertex="1" parent="TH_2x9Yu9lI-z_PSha7c-48">
          <mxGeometry y="60" width="250" height="30" as="geometry" />
        </mxCell>
        <mxCell id="TH_2x9Yu9lI-z_PSha7c-53" value="" style="shape=partialRectangle;overflow=hidden;connectable=0;fillColor=none;top=0;left=0;bottom=0;right=0;" vertex="1" parent="TH_2x9Yu9lI-z_PSha7c-52">
          <mxGeometry width="30" height="30" as="geometry" />
        </mxCell>
        <mxCell id="TH_2x9Yu9lI-z_PSha7c-54" value="name VARCHAR(255)" style="shape=partialRectangle;overflow=hidden;connectable=0;fillColor=none;top=0;left=0;bottom=0;right=0;align=left;spacingLeft=6;" vertex="1" parent="TH_2x9Yu9lI-z_PSha7c-52">
          <mxGeometry x="30" width="220" height="30" as="geometry" />
        </mxCell>
        <mxCell id="TH_2x9Yu9lI-z_PSha7c-55" value="" style="shape=partialRectangle;collapsible=0;dropTarget=0;pointerEvents=0;fillColor=none;points=[[0,0.5],[1,0.5]];portConstraint=eastwest;top=0;left=0;right=0;bottom=0;" vertex="1" parent="TH_2x9Yu9lI-z_PSha7c-48">
          <mxGeometry y="90" width="250" height="30" as="geometry" />
        </mxCell>
        <mxCell id="TH_2x9Yu9lI-z_PSha7c-56" value="" style="shape=partialRectangle;overflow=hidden;connectable=0;fillColor=none;top=0;left=0;bottom=0;right=0;" vertex="1" parent="TH_2x9Yu9lI-z_PSha7c-55">
          <mxGeometry width="30" height="30" as="geometry" />
        </mxCell>
        <mxCell id="TH_2x9Yu9lI-z_PSha7c-57" value="content TEXT" style="shape=partialRectangle;overflow=hidden;connectable=0;fillColor=none;top=0;left=0;bottom=0;right=0;align=left;spacingLeft=6;" vertex="1" parent="TH_2x9Yu9lI-z_PSha7c-55">
          <mxGeometry x="30" width="220" height="30" as="geometry" />
        </mxCell>
        <mxCell id="TH_2x9Yu9lI-z_PSha7c-58" value="" style="shape=partialRectangle;collapsible=0;dropTarget=0;pointerEvents=0;fillColor=none;points=[[0,0.5],[1,0.5]];portConstraint=eastwest;top=0;left=0;right=0;bottom=0;" vertex="1" parent="TH_2x9Yu9lI-z_PSha7c-48">
          <mxGeometry y="120" width="250" height="30" as="geometry" />
        </mxCell>
        <mxCell id="TH_2x9Yu9lI-z_PSha7c-59" value="" style="shape=partialRectangle;overflow=hidden;connectable=0;fillColor=none;top=0;left=0;bottom=0;right=0;" vertex="1" parent="TH_2x9Yu9lI-z_PSha7c-58">
          <mxGeometry width="30" height="30" as="geometry" />
        </mxCell>
        <mxCell id="TH_2x9Yu9lI-z_PSha7c-60" value="day INT" style="shape=partialRectangle;overflow=hidden;connectable=0;fillColor=none;top=0;left=0;bottom=0;right=0;align=left;spacingLeft=6;" vertex="1" parent="TH_2x9Yu9lI-z_PSha7c-58">
          <mxGeometry x="30" width="220" height="30" as="geometry" />
        </mxCell>
        <mxCell id="TH_2x9Yu9lI-z_PSha7c-61" value="" style="shape=partialRectangle;collapsible=0;dropTarget=0;pointerEvents=0;fillColor=none;points=[[0,0.5],[1,0.5]];portConstraint=eastwest;top=0;left=0;right=0;bottom=0;" vertex="1" parent="TH_2x9Yu9lI-z_PSha7c-48">
          <mxGeometry y="150" width="250" height="32" as="geometry" />
        </mxCell>
        <mxCell id="TH_2x9Yu9lI-z_PSha7c-62" value="" style="shape=partialRectangle;overflow=hidden;connectable=0;fillColor=none;top=0;left=0;bottom=0;right=0;" vertex="1" parent="TH_2x9Yu9lI-z_PSha7c-61">
          <mxGeometry width="30" height="32" as="geometry" />
        </mxCell>
        <mxCell id="TH_2x9Yu9lI-z_PSha7c-63" value="chapter INT" style="shape=partialRectangle;overflow=hidden;connectable=0;fillColor=none;top=0;left=0;bottom=0;right=0;align=left;spacingLeft=6;" vertex="1" parent="TH_2x9Yu9lI-z_PSha7c-61">
          <mxGeometry x="30" width="220" height="32" as="geometry" />
        </mxCell>
        <mxCell id="TH_2x9Yu9lI-z_PSha7c-64" value="" style="shape=partialRectangle;collapsible=0;dropTarget=0;pointerEvents=0;fillColor=none;points=[[0,0.5],[1,0.5]];portConstraint=eastwest;top=0;left=0;right=0;bottom=0;" vertex="1" parent="TH_2x9Yu9lI-z_PSha7c-48">
          <mxGeometry y="182" width="250" height="30" as="geometry" />
        </mxCell>
        <mxCell id="TH_2x9Yu9lI-z_PSha7c-65" value="" style="shape=partialRectangle;overflow=hidden;connectable=0;fillColor=none;top=0;left=0;bottom=0;right=0;" vertex="1" parent="TH_2x9Yu9lI-z_PSha7c-64">
          <mxGeometry width="30" height="30" as="geometry" />
        </mxCell>
        <mxCell id="TH_2x9Yu9lI-z_PSha7c-66" value="duration INT" style="shape=partialRectangle;overflow=hidden;connectable=0;fillColor=none;top=0;left=0;bottom=0;right=0;align=left;spacingLeft=6;" vertex="1" parent="TH_2x9Yu9lI-z_PSha7c-64">
          <mxGeometry x="30" width="220" height="30" as="geometry" />
        </mxCell>
        <mxCell id="C-vyLk0tnHw3VtMMgP7b-23" value="cohort" style="shape=table;startSize=30;container=1;collapsible=1;childLayout=tableLayout;fixedRows=1;rowLines=0;fontStyle=1;align=center;resizeLast=1;horizontal=1;direction=east;strokeColor=#23445d;fillColor=#bac8d3;" parent="1" vertex="1">
          <mxGeometry x="29" y="44" width="250" height="180" as="geometry">
            <mxRectangle x="120" y="120" width="100" height="30" as="alternateBounds" />
          </mxGeometry>
        </mxCell>
        <mxCell id="C-vyLk0tnHw3VtMMgP7b-24" value="" style="shape=partialRectangle;collapsible=0;dropTarget=0;pointerEvents=0;fillColor=none;points=[[0,0.5],[1,0.5]];portConstraint=eastwest;top=0;left=0;right=0;bottom=1;" parent="C-vyLk0tnHw3VtMMgP7b-23" vertex="1">
          <mxGeometry y="30" width="250" height="30" as="geometry" />
        </mxCell>
        <mxCell id="C-vyLk0tnHw3VtMMgP7b-25" value="PK" style="shape=partialRectangle;overflow=hidden;connectable=0;fillColor=none;top=0;left=0;bottom=0;right=0;fontStyle=1;" parent="C-vyLk0tnHw3VtMMgP7b-24" vertex="1">
          <mxGeometry width="30" height="30" as="geometry" />
        </mxCell>
        <mxCell id="C-vyLk0tnHw3VtMMgP7b-26" value="id SERIAL INT NOT NULL " style="shape=partialRectangle;overflow=hidden;connectable=0;top=0;left=0;bottom=0;right=0;align=left;spacingLeft=6;fontStyle=5;fillColor=none;" parent="C-vyLk0tnHw3VtMMgP7b-24" vertex="1">
          <mxGeometry x="30" width="220" height="30" as="geometry" />
        </mxCell>
        <mxCell id="C-vyLk0tnHw3VtMMgP7b-27" value="" style="shape=partialRectangle;collapsible=0;dropTarget=0;pointerEvents=0;fillColor=none;points=[[0,0.5],[1,0.5]];portConstraint=eastwest;top=0;left=0;right=0;bottom=0;" parent="C-vyLk0tnHw3VtMMgP7b-23" vertex="1">
          <mxGeometry y="60" width="250" height="30" as="geometry" />
        </mxCell>
        <mxCell id="C-vyLk0tnHw3VtMMgP7b-28" value="" style="shape=partialRectangle;overflow=hidden;connectable=0;fillColor=none;top=0;left=0;bottom=0;right=0;" parent="C-vyLk0tnHw3VtMMgP7b-27" vertex="1">
          <mxGeometry width="30" height="30" as="geometry" />
        </mxCell>
        <mxCell id="C-vyLk0tnHw3VtMMgP7b-29" value="name VARCHAR(255) NOT NULL" style="shape=partialRectangle;overflow=hidden;connectable=0;fillColor=none;top=0;left=0;bottom=0;right=0;align=left;spacingLeft=6;" parent="C-vyLk0tnHw3VtMMgP7b-27" vertex="1">
          <mxGeometry x="30" width="220" height="30" as="geometry" />
        </mxCell>
        <mxCell id="TH_2x9Yu9lI-z_PSha7c-9" value="" style="shape=partialRectangle;collapsible=0;dropTarget=0;pointerEvents=0;fillColor=none;points=[[0,0.5],[1,0.5]];portConstraint=eastwest;top=0;left=0;right=0;bottom=0;" vertex="1" parent="C-vyLk0tnHw3VtMMgP7b-23">
          <mxGeometry y="90" width="250" height="30" as="geometry" />
        </mxCell>
        <mxCell id="TH_2x9Yu9lI-z_PSha7c-10" value="" style="shape=partialRectangle;overflow=hidden;connectable=0;fillColor=none;top=0;left=0;bottom=0;right=0;" vertex="1" parent="TH_2x9Yu9lI-z_PSha7c-9">
          <mxGeometry width="30" height="30" as="geometry" />
        </mxCell>
        <mxCell id="TH_2x9Yu9lI-z_PSha7c-11" value="start_date DATE" style="shape=partialRectangle;overflow=hidden;connectable=0;fillColor=none;top=0;left=0;bottom=0;right=0;align=left;spacingLeft=6;" vertex="1" parent="TH_2x9Yu9lI-z_PSha7c-9">
          <mxGeometry x="30" width="220" height="30" as="geometry" />
        </mxCell>
        <mxCell id="TH_2x9Yu9lI-z_PSha7c-15" value="" style="shape=partialRectangle;collapsible=0;dropTarget=0;pointerEvents=0;fillColor=none;points=[[0,0.5],[1,0.5]];portConstraint=eastwest;top=0;left=0;right=0;bottom=0;" vertex="1" parent="C-vyLk0tnHw3VtMMgP7b-23">
          <mxGeometry y="120" width="250" height="30" as="geometry" />
        </mxCell>
        <mxCell id="TH_2x9Yu9lI-z_PSha7c-16" value="" style="shape=partialRectangle;overflow=hidden;connectable=0;fillColor=none;top=0;left=0;bottom=0;right=0;" vertex="1" parent="TH_2x9Yu9lI-z_PSha7c-15">
          <mxGeometry width="30" height="30" as="geometry" />
        </mxCell>
        <mxCell id="TH_2x9Yu9lI-z_PSha7c-17" value="end_date DATE" style="shape=partialRectangle;overflow=hidden;connectable=0;fillColor=none;top=0;left=0;bottom=0;right=0;align=left;spacingLeft=6;" vertex="1" parent="TH_2x9Yu9lI-z_PSha7c-15">
          <mxGeometry x="30" width="220" height="30" as="geometry" />
        </mxCell>
        <mxCell id="TH_2x9Yu9lI-z_PSha7c-12" value="" style="shape=partialRectangle;collapsible=0;dropTarget=0;pointerEvents=0;fillColor=none;points=[[0,0.5],[1,0.5]];portConstraint=eastwest;top=0;left=0;right=0;bottom=0;" vertex="1" parent="C-vyLk0tnHw3VtMMgP7b-23">
          <mxGeometry y="150" width="250" height="30" as="geometry" />
        </mxCell>
        <mxCell id="TH_2x9Yu9lI-z_PSha7c-13" value="" style="shape=partialRectangle;overflow=hidden;connectable=0;fillColor=none;top=0;left=0;bottom=0;right=0;" vertex="1" parent="TH_2x9Yu9lI-z_PSha7c-12">
          <mxGeometry width="30" height="30" as="geometry" />
        </mxCell>
        <mxCell id="TH_2x9Yu9lI-z_PSha7c-14" value="" style="shape=partialRectangle;overflow=hidden;connectable=0;fillColor=none;top=0;left=0;bottom=0;right=0;align=left;spacingLeft=6;" vertex="1" parent="TH_2x9Yu9lI-z_PSha7c-12">
          <mxGeometry x="30" width="220" height="30" as="geometry" />
        </mxCell>
      </root>
    </mxGraphModel>
  </diagram>
</mxfile>
